<svg version="1.1" id="Layer_1" xmlns="http://www.w3.org/2000/svg" xmlns:xlink="http://www.w3.org/1999/xlink" x="0px" y="0px"
	 width="100%" viewBox="0 0 818 151" enable-background="new 0 0 818 151" xml:space="preserve">
<path fill="#F9676C" opacity="1.000000" stroke="none" 
	d="
M618.000000,152.000000 
	C412.000031,152.000000 206.500046,152.000000 1.000055,152.000000 
	C1.000037,101.666695 1.000037,51.333393 1.000018,1.000069 
	C273.666595,1.000046 546.333191,1.000046 818.999878,1.000023 
	C818.999878,51.333263 818.999878,101.666527 818.999939,151.999893 
	C752.166687,152.000000 685.333313,152.000000 618.000000,152.000000 
M583.565796,31.714203 
	C583.375610,41.756001 583.185486,51.797794 582.066040,61.964668 
	C575.169312,61.964668 568.272522,61.964668 560.712891,61.964668 
	C560.712891,51.325314 560.712891,41.328270 560.712891,31.091619 
	C552.430359,31.091619 544.825928,31.091619 536.362183,31.063206 
	C532.596558,30.662624 531.973572,32.884514 531.979797,35.993477 
	C532.028870,60.614330 532.060974,85.235565 531.950806,109.856018 
	C531.933350,113.754112 533.280151,115.484512 538.118347,114.960136 
	C545.534546,114.960136 552.950745,114.960136 561.154175,114.960136 
	C561.154175,103.906860 561.154175,93.487389 562.070435,83.069275 
	C569.018677,83.094627 575.966980,83.119980 582.962830,84.055222 
	C582.975220,90.808350 582.878296,97.564171 583.044495,104.313507 
	C583.132141,107.873032 583.678772,111.421249 584.877930,114.970673 
	C586.025391,114.933395 587.172852,114.896118 589.214355,114.938599 
	C596.628174,114.938599 604.041992,114.938599 611.548706,114.938599 
	C611.548706,86.672546 611.548706,59.044998 611.548706,31.129129 
	C603.544556,31.129129 595.928650,31.129129 587.449829,31.077633 
	C586.299133,31.055891 585.148376,31.034149 583.565796,31.714203 
M420.005768,78.936081 
	C420.004242,88.702347 419.942200,98.469254 420.046570,108.234383 
	C420.070648,110.488350 420.664398,112.736237 421.856384,114.987717 
	C423.004150,114.950500 424.151917,114.913284 426.197235,114.943924 
	C433.474213,114.943924 440.751160,114.943924 448.099976,114.943924 
	C448.099976,99.470230 448.592682,84.515457 447.948822,69.609795 
	C447.403656,56.989243 440.292542,51.506680 427.582642,51.685932 
	C419.665924,51.797585 412.743835,54.230167 406.520599,59.885578 
	C406.213287,57.141594 406.012695,55.350727 405.763367,53.124439 
	C398.880737,53.124439 392.089783,53.124439 384.438354,53.074493 
	C383.290894,53.054024 382.143433,53.033554 380.565063,53.715099 
	C380.387115,54.516342 380.055328,55.317291 380.053772,56.118874 
	C380.018585,74.484550 380.000122,92.850365 380.055786,111.215912 
	C380.059601,112.473854 380.668488,113.729958 381.856384,114.987717 
	C383.004150,114.950500 384.151917,114.913284 386.197235,114.943932 
	C393.425598,114.943932 400.653992,114.943932 408.275848,114.943932 
	C408.275848,104.254372 408.249084,94.319962 408.285431,84.385788 
	C408.308990,77.946594 410.658142,74.688942 417.372101,72.638206 
	C418.251709,74.425034 419.131317,76.211861 420.005768,78.936081 
M658.581116,53.710407 
	C658.395691,66.166222 658.210266,78.622032 657.864624,91.732033 
	C655.901611,93.450882 653.938660,95.169731 651.273193,96.808807 
	C647.693726,95.182053 646.888000,92.100098 646.893494,88.555557 
	C646.907715,79.390396 646.894836,70.225197 646.893005,61.060013 
	C646.892517,58.475483 646.892883,55.890957 646.892883,53.020889 
	C638.699402,53.020889 631.377808,53.020889 623.217041,52.999149 
	C621.819092,53.005356 620.421143,53.011562 618.576355,53.711544 
	C618.491211,68.029060 618.400024,82.346558 618.349915,96.664207 
	C618.348389,97.101257 618.775085,97.539803 619.031311,98.771881 
	C620.068665,101.889206 620.475159,105.452972 622.291199,108.019295 
	C625.018066,111.872826 627.858521,116.559525 634.732666,115.009361 
	C635.163147,115.144279 635.593628,115.279190 636.339172,115.694023 
	C636.581909,115.852699 636.848206,115.934959 638.054749,115.941177 
	C646.816956,116.778854 655.264099,116.078377 663.404053,111.232155 
	C669.308716,116.860382 676.297546,117.982544 684.822449,116.045219 
	C689.776611,116.477730 691.768005,114.345627 691.188538,109.313339 
	C690.809937,106.025253 691.224548,102.652802 691.047485,99.330742 
	C690.985107,98.160690 690.241943,97.019073 689.771301,95.880295 
	C688.826050,93.592880 687.094238,91.339142 687.025024,89.031387 
	C686.720581,78.879883 686.905945,68.714050 686.880371,58.553493 
	C686.875977,56.795689 686.710693,55.038292 686.606384,53.023830 
	C678.698975,53.023830 671.380127,53.023830 663.222717,53.001740 
	C661.825928,53.007412 660.429138,53.013084 658.581116,53.710407 
M346.315399,53.066971 
	C346.074402,53.078842 345.833374,53.090714 344.707153,53.056564 
	C336.880249,53.071968 329.053375,53.087372 320.402893,53.069599 
	C318.127075,54.346977 315.496033,55.248924 313.657623,56.988552 
	C310.803986,59.688801 308.490265,62.959595 305.832947,65.058411 
	C305.816101,54.459435 305.689728,43.858849 305.845337,33.262405 
	C305.895752,29.830355 304.812500,28.523212 301.310303,28.684242 
	C295.196747,28.965342 289.067413,28.902863 282.134674,28.979382 
	C280.783936,28.983244 279.433197,28.987106 277.611267,29.681068 
	C277.409943,30.811920 277.034302,31.942545 277.032837,33.073658 
	C276.999084,58.955585 276.989960,84.837608 277.049408,110.719444 
	C277.052673,112.140793 277.690125,113.560684 278.869629,114.977051 
	C280.265991,114.977066 281.662384,114.977074 283.988525,114.994049 
	C291.068542,114.994049 298.148529,114.994049 304.947205,114.994049 
	C307.771545,107.707924 302.272339,99.314659 309.963715,93.251900 
	C313.992249,99.708534 317.690826,105.967522 321.782837,111.957779 
	C322.783905,113.423271 325.040558,114.789665 326.775665,114.861862 
	C333.735504,115.151413 340.717194,114.914497 348.564880,114.912743 
	C349.729095,114.934349 350.893311,114.955956 352.987488,114.994957 
	C360.069794,114.994957 367.152069,114.994957 374.365631,114.994957 
	C374.365631,93.988922 374.365631,73.670959 374.365631,53.022385 
	C366.652008,53.022385 359.354828,53.022385 351.220734,53.001110 
	C349.826660,53.011871 348.432617,53.022633 346.315399,53.066971 
M351.122009,28.989464 
	C348.142273,28.842720 346.923645,30.302717 347.012970,33.228550 
	C347.114502,36.553749 347.182739,39.893417 346.988892,43.210636 
	C346.766907,47.008907 348.526489,48.364563 353.003113,47.983688 
	C360.090515,47.983688 367.177917,47.983688 374.766876,47.983688 
	C374.766876,42.138203 374.962646,37.000362 374.613800,31.899773 
	C374.537292,30.781250 372.551544,28.930714 371.395203,28.891592 
	C364.919739,28.672520 358.429016,28.905523 351.122009,28.989464 
M93.638954,52.014648 
	C100.250656,52.304684 104.737076,55.899586 107.573486,61.572792 
	C109.334869,60.941711 110.570457,60.499023 112.170914,60.499897 
	C112.761475,60.682705 113.591080,61.213650 113.907127,60.996655 
	C119.615562,57.077152 125.262062,53.067440 130.840820,49.134083 
	C121.853210,32.462910 101.427376,27.069489 82.279457,32.682049 
	C63.261627,38.256477 50.947445,57.603939 53.190346,77.025345 
	C55.535564,97.332779 72.145424,114.151939 91.569450,115.888069 
	C108.901924,117.437256 127.537437,108.181244 131.285019,95.898872 
	C125.257866,92.291183 119.164932,88.644119 113.879585,85.480453 
	C109.968536,88.537704 107.003052,92.001793 103.245148,93.585220 
	C90.358437,99.015144 77.927704,89.689568 77.140366,74.473450 
	C76.519150,62.467896 83.087540,53.027611 93.638954,52.014648 
M701.118896,114.959381 
	C707.372314,114.959381 713.625793,114.959381 719.750793,114.959381 
	C720.187805,112.399323 720.501770,110.560356 720.874573,108.376564 
	C735.063477,122.902428 761.116943,116.766304 767.312256,95.923195 
	C770.537720,85.072083 769.871826,74.476448 764.025024,64.615608 
	C758.765686,55.745483 750.893921,50.624905 740.436523,51.975903 
	C734.671814,52.720650 729.170349,55.502251 723.366577,57.426445 
	C723.325928,56.730644 723.143921,54.973881 723.134460,53.216202 
	C723.097961,46.390629 723.054565,39.563931 723.145874,32.739418 
	C723.180176,30.174517 722.626770,28.616621 719.602112,28.716877 
	C713.120239,28.931721 706.632202,28.960604 699.297485,29.044750 
	C695.493225,28.673849 694.976196,30.986130 694.981628,34.044376 
	C695.026184,59.316875 695.059448,84.589714 694.950867,109.861832 
	C694.934082,113.761223 696.286926,115.483078 701.118896,114.959381 
M504.286102,53.003258 
	C502.487579,53.686543 500.689026,54.369827 498.208313,54.808846 
	C484.310577,48.074478 468.803162,52.148552 461.012909,64.826485 
	C455.690704,73.487915 454.728394,82.979729 456.962158,92.765419 
	C460.402496,107.837112 471.431183,116.343788 486.675842,114.763153 
	C491.788055,114.233086 496.641357,111.205536 501.609772,109.320770 
	C501.643433,114.105171 500.770172,119.368851 495.577118,122.005981 
	C485.569214,127.088188 476.628693,123.467896 469.345978,117.908577 
	C464.717529,121.956573 460.513489,125.633408 456.325745,129.295959 
	C456.942322,130.078018 457.208221,130.510162 457.564270,130.846924 
	C458.289154,131.532471 459.040009,132.194946 459.819519,132.817657 
	C471.122131,141.846954 484.186646,143.112946 497.628448,140.315857 
	C516.453918,136.398453 524.894104,125.309448 524.895630,106.026413 
	C524.896851,90.201202 524.904175,74.375977 524.883484,58.550789 
	C524.881165,56.793064 524.712891,55.035553 524.608398,53.022770 
	C517.697693,53.022770 511.378113,53.022770 504.286102,53.003258 
M183.771027,54.593369 
	C177.098923,53.713436 170.401794,51.944641 163.759750,52.131771 
	C148.156448,52.571381 136.309113,63.687378 134.161530,78.750755 
	C131.822891,95.154213 140.205292,109.691299 155.527679,114.396271 
	C160.622238,115.960625 166.342041,116.151062 171.737503,115.947868 
	C187.324814,115.360847 199.044601,105.421654 201.897522,91.027100 
	C204.979218,75.478317 198.461136,61.991516 183.771027,54.593369 
M253.655075,114.369308 
	C277.796936,106.141968 279.866058,77.655891 268.172485,63.531223 
	C259.727692,53.330776 248.430145,50.830772 235.844345,51.970280 
	C222.932297,53.139332 213.453751,59.353897 208.758972,71.497185 
	C203.874191,84.131927 205.497116,96.247383 214.985321,106.271156 
	C225.549225,117.431374 238.959442,117.768547 253.655075,114.369308 
z"/>
<path fill="#FEEAEA" opacity="1.000000" stroke="none" 
	d="
M505.058502,53.022770 
	C511.378113,53.022770 517.697693,53.022770 524.608398,53.022770 
	C524.712891,55.035553 524.881165,56.793064 524.883484,58.550789 
	C524.904175,74.375977 524.896851,90.201202 524.895630,106.026413 
	C524.894104,125.309448 516.453918,136.398453 497.628448,140.315857 
	C484.186646,143.112946 471.122131,141.846954 459.819519,132.817657 
	C459.040009,132.194946 458.289154,131.532471 457.564270,130.846924 
	C457.208221,130.510162 456.942322,130.078018 456.325745,129.295959 
	C460.513489,125.633408 464.717529,121.956573 469.345978,117.908577 
	C476.628693,123.467896 485.569214,127.088188 495.577118,122.005981 
	C500.770172,119.368851 501.643433,114.105171 501.609772,109.320770 
	C496.641357,111.205536 491.788055,114.233086 486.675842,114.763153 
	C471.431183,116.343788 460.402496,107.837112 456.962158,92.765419 
	C454.728394,82.979729 455.690704,73.487915 461.012909,64.826485 
	C468.803162,52.148552 484.310577,48.074478 498.762756,55.187950 
	C500.876343,56.829300 502.435455,58.091545 504.474091,59.742012 
	C504.707458,57.058754 504.882996,55.040764 505.058502,53.022770 
M490.793732,96.985413 
	C497.761139,96.651169 501.739166,93.272255 501.911682,87.541931 
	C502.229797,76.975502 499.011719,72.158363 490.201660,71.046188 
	C483.964172,70.754471 479.712097,77.678436 479.654694,83.692238 
	C479.581970,91.305580 482.740814,95.512604 490.793732,96.985413 
z"/>
<path fill="#FEEAEA" opacity="1.000000" stroke="none" 
	d="
M561.154175,83.067917 
	C561.154175,93.487389 561.154175,103.906860 561.154175,114.960136 
	C552.950745,114.960136 545.534546,114.960136 537.626221,114.475204 
	C537.163208,86.357391 537.192322,58.724506 537.221436,31.091619 
	C544.825928,31.091619 552.430359,31.091619 560.712891,31.091619 
	C560.712891,41.328270 560.712891,51.325314 560.712891,61.964668 
	C568.272522,61.964668 575.169312,61.964668 582.778320,61.943375 
	C583.655640,61.894501 583.820679,61.866920 584.416260,61.895203 
	C588.083557,62.430698 588.238037,60.374252 588.234497,57.992649 
	C588.221130,49.038204 588.280640,40.083645 588.312866,31.129129 
	C595.928650,31.129129 603.544556,31.129129 611.548706,31.129129 
	C611.548706,59.044998 611.548706,86.672546 611.548706,114.938599 
	C604.041992,114.938599 596.628174,114.938599 588.747742,114.439552 
	C588.271301,104.844864 588.353882,95.747223 588.157532,86.655609 
	C588.125977,85.192986 586.856750,82.504074 586.148132,82.500259 
	C577.818054,82.455406 569.485840,82.814957 561.154175,83.067917 
z"/>
<path fill="#FEEBEB" opacity="1.000000" stroke="none" 
	d="
M700.146729,29.065639 
	C706.632202,28.960604 713.120239,28.931721 719.602112,28.716877 
	C722.626770,28.616621 723.180176,30.174517 723.145874,32.739418 
	C723.054565,39.563931 723.097961,46.390629 723.134460,53.216202 
	C723.143921,54.973881 723.325928,56.730644 723.366577,57.426445 
	C729.170349,55.502251 734.671814,52.720650 740.436523,51.975903 
	C750.893921,50.624905 758.765686,55.745483 764.025024,64.615608 
	C769.871826,74.476448 770.537720,85.072083 767.312256,95.923195 
	C761.116943,116.766304 735.063477,122.902428 720.874573,108.376564 
	C720.501770,110.560356 720.187805,112.399323 719.750793,114.959381 
	C713.625793,114.959381 707.372314,114.959381 700.627075,114.474670 
	C700.139099,85.681847 700.142944,57.373745 700.146729,29.065639 
M745.114014,87.058296 
	C745.063354,84.908302 745.293396,82.706749 744.909790,80.617928 
	C743.737854,74.237747 738.712524,70.281494 733.032349,71.000580 
	C729.102722,71.498055 723.815063,75.888008 723.429749,80.045097 
	C722.959656,85.118256 721.364807,90.684349 726.701172,94.682220 
	C733.561462,99.821739 741.887390,96.806450 745.114014,87.058296 
z"/>
<path fill="#FEEAEA" opacity="1.000000" stroke="none" 
	d="
M92.823639,51.932987 
	C83.087540,53.027611 76.519150,62.467896 77.140366,74.473450 
	C77.927704,89.689568 90.358437,99.015144 103.245148,93.585220 
	C107.003052,92.001793 109.968536,88.537704 113.879585,85.480453 
	C119.164932,88.644119 125.257866,92.291183 131.285019,95.898872 
	C127.537437,108.181244 108.901924,117.437256 91.569450,115.888069 
	C72.145424,114.151939 55.535564,97.332779 53.190346,77.025345 
	C50.947445,57.603939 63.261627,38.256477 82.279457,32.682049 
	C101.427376,27.069489 121.853210,32.462910 130.840820,49.134083 
	C125.262062,53.067440 119.615562,57.077152 113.907127,60.996655 
	C113.591080,61.213650 112.761475,60.682705 111.904076,59.951782 
	C107.069572,52.623375 100.672684,50.449692 92.823639,51.932987 
z"/>
<path fill="#FEEAEA" opacity="1.000000" stroke="none" 
	d="
M321.226471,53.102768 
	C329.053375,53.087372 336.880249,53.071968 345.183044,53.232933 
	C345.658905,53.409306 345.795807,53.690903 345.510651,53.871010 
	C338.942627,61.959709 332.578094,69.806404 326.477203,77.852974 
	C325.689423,78.891975 325.599609,81.403976 326.314911,82.491219 
	C332.678894,92.163956 339.296936,101.669525 345.884766,111.416580 
	C345.929413,111.608788 346.149963,111.936058 346.216461,112.207443 
	C346.752258,113.276634 347.221527,114.074440 347.690826,114.872238 
	C340.717194,114.914497 333.735504,115.151413 326.775665,114.861862 
	C325.040558,114.789665 322.783905,113.423271 321.782837,111.957779 
	C317.690826,105.967522 313.992249,99.708534 309.963715,93.251900 
	C302.272339,99.314659 307.771545,107.707924 304.947205,114.994049 
	C298.148529,114.994049 291.068542,114.994049 283.442505,114.524155 
	C282.912567,85.697632 282.928619,57.341003 282.944641,28.984375 
	C289.067413,28.902863 295.196747,28.965342 301.310303,28.684242 
	C304.812500,28.523212 305.895752,29.830355 305.845337,33.262405 
	C305.689728,43.858849 305.816101,54.459435 305.813599,65.936066 
	C305.794281,68.863037 305.794281,70.912354 305.794281,72.961670 
	C306.210785,73.077446 306.627319,73.193214 307.043823,73.308990 
	C311.771362,66.573586 316.498901,59.838177 321.226471,53.102768 
z"/>
<path fill="#FEEAEA" opacity="1.000000" stroke="none" 
	d="
M385.298859,53.124439 
	C392.089783,53.124439 398.880737,53.124439 405.763367,53.124439 
	C406.012695,55.350727 406.213287,57.141594 406.520599,59.885578 
	C412.743835,54.230167 419.665924,51.797585 427.582642,51.685932 
	C440.292542,51.506680 447.403656,56.989243 447.948822,69.609795 
	C448.592682,84.515457 448.099976,99.470230 448.099976,114.943924 
	C440.751160,114.943924 433.474213,114.943924 425.722137,114.450241 
	C425.231720,102.546661 425.289612,91.136009 425.171387,79.727165 
	C425.108704,73.676811 422.986206,71.832466 416.987915,72.087730 
	C410.658142,74.688942 408.308990,77.946594 408.285431,84.385788 
	C408.249084,94.319962 408.275848,104.254372 408.275848,114.943932 
	C400.653992,114.943932 393.425598,114.943932 385.722107,114.450249 
	C385.264282,93.679192 385.281555,73.401817 385.298859,53.124439 
z"/>
<path fill="#FEEBEB" opacity="1.000000" stroke="none" 
	d="
M624.056274,53.020889 
	C631.377808,53.020889 638.699402,53.020889 646.892883,53.020889 
	C646.892883,55.890957 646.892517,58.475483 646.893005,61.060013 
	C646.894836,70.225197 646.907715,79.390396 646.893494,88.555557 
	C646.888000,92.100098 647.693726,95.182053 652.032227,96.903481 
	C660.747620,96.608047 663.774292,93.491852 663.821106,85.708572 
	C663.886719,74.813576 663.979919,63.918736 664.061279,53.023830 
	C671.380127,53.023830 678.698975,53.023830 686.606384,53.023830 
	C686.710693,55.038292 686.875977,56.795689 686.880371,58.553493 
	C686.905945,68.714050 686.720581,78.879883 687.025024,89.031387 
	C687.094238,91.339142 688.826050,93.592880 689.771301,95.880295 
	C690.241943,97.019073 690.985107,98.160690 691.047485,99.330742 
	C691.224548,102.652802 690.809937,106.025253 691.188538,109.313339 
	C691.768005,114.345627 689.776611,116.477730 683.962341,116.085556 
	C675.975220,116.391335 669.481628,115.474022 667.296265,106.511894 
	C666.806946,106.477600 666.317627,106.443298 665.828308,106.409004 
	C664.815002,107.897232 663.801636,109.385460 662.788330,110.873680 
	C655.264099,116.078377 646.816956,116.778854 637.438232,115.800323 
	C636.581177,115.495407 636.315247,115.413620 636.024109,115.414108 
	C635.593628,115.279190 635.163147,115.144279 634.195312,114.695923 
	C627.260071,110.748886 624.244385,104.909714 624.118225,97.894150 
	C623.849487,82.940857 624.048828,67.979149 624.056274,53.020889 
z"/>
<path fill="#FEEAEA" opacity="1.000000" stroke="none" 
	d="
M184.113388,54.765541 
	C198.461136,61.991516 204.979218,75.478317 201.897522,91.027100 
	C199.044601,105.421654 187.324814,115.360847 171.737503,115.947868 
	C166.342041,116.151062 160.622238,115.960625 155.527679,114.396271 
	C140.205292,109.691299 131.822891,95.154213 134.161530,78.750755 
	C136.309113,63.687378 148.156448,52.571381 163.759750,52.131771 
	C170.401794,51.944641 177.098923,53.713436 184.113388,54.765541 
M168.190613,71.035614 
	C160.614380,71.634529 157.342514,76.300011 157.805328,85.844353 
	C158.147049,92.891380 162.239868,96.912361 169.704468,96.933868 
	C176.395081,95.009827 179.432663,90.266220 178.878708,82.606972 
	C178.375183,75.644806 175.093872,71.853981 168.190613,71.035614 
z"/>
<path fill="#FEEAEA" opacity="1.000000" stroke="none" 
	d="
M253.285217,114.534134 
	C238.959442,117.768547 225.549225,117.431374 214.985321,106.271156 
	C205.497116,96.247383 203.874191,84.131927 208.758972,71.497185 
	C213.453751,59.353897 222.932297,53.139332 235.844345,51.970280 
	C248.430145,50.830772 259.727692,53.330776 268.172485,63.531223 
	C279.866058,77.655891 277.796936,106.141968 253.285217,114.534134 
M239.804825,96.988541 
	C247.821793,96.738373 251.477798,92.283455 251.225616,83.072029 
	C251.000198,74.839134 246.871841,70.797783 238.283569,71.102394 
	C232.118698,73.749329 229.709015,77.953880 230.134079,85.322083 
	C230.499954,91.664131 233.068909,95.013512 239.804825,96.988541 
z"/>
<path fill="#FEEAEA" opacity="1.000000" stroke="none" 
	d="
M352.057648,53.022385 
	C359.354828,53.022385 366.652008,53.022385 374.365631,53.022385 
	C374.365631,73.670959 374.365631,93.988922 374.365631,114.994957 
	C367.152069,114.994957 360.069794,114.994957 352.441284,114.524826 
	C351.949310,93.710587 352.003479,73.366486 352.057648,53.022385 
z"/>
<path fill="#FEEAEA" opacity="1.000000" stroke="none" 
	d="
M351.943481,28.984137 
	C358.429016,28.905523 364.919739,28.672520 371.395203,28.891592 
	C372.551544,28.930714 374.537292,30.781250 374.613800,31.899773 
	C374.962646,37.000362 374.766876,42.138203 374.766876,47.983688 
	C367.177917,47.983688 360.090515,47.983688 352.456940,47.516293 
	C351.921692,41.027309 351.932587,35.005722 351.943481,28.984137 
z"/>
<path fill="#F17377" opacity="1.000000" stroke="none" 
	d="
M699.722107,29.055195 
	C700.142944,57.373745 700.139099,85.681847 700.172241,114.451630 
	C696.286926,115.483078 694.934082,113.761223 694.950867,109.861832 
	C695.059448,84.589714 695.026184,59.316875 694.981628,34.044376 
	C694.976196,30.986130 695.493225,28.673849 699.722107,29.055195 
z"/>
<path fill="#EF7C80" opacity="1.000000" stroke="none" 
	d="
M282.539673,28.981876 
	C282.928619,57.341003 282.912567,85.697632 282.977631,114.515671 
	C281.662384,114.977074 280.265991,114.977066 278.447357,114.512390 
	C278.044220,85.695480 278.063324,57.343224 278.082458,28.990969 
	C279.433197,28.987106 280.783936,28.983244 282.539673,28.981876 
z"/>
<path fill="#F17377" opacity="1.000000" stroke="none" 
	d="
M536.791748,31.077412 
	C537.192322,58.724506 537.163208,86.357391 537.171143,114.451965 
	C533.280151,115.484512 531.933350,113.754112 531.950806,109.856018 
	C532.060974,85.235565 532.028870,60.614330 531.979797,35.993477 
	C531.973572,32.884514 532.596558,30.662624 536.791748,31.077412 
z"/>
<path fill="#F07B7E" opacity="1.000000" stroke="none" 
	d="
M623.636658,53.010017 
	C624.048828,67.979149 623.849487,82.940857 624.118225,97.894150 
	C624.244385,104.909714 627.260071,110.748886 633.857544,114.652779 
	C627.858521,116.559525 625.018066,111.872826 622.291199,108.019295 
	C620.475159,105.452972 620.068665,101.889206 619.021118,97.908630 
	C619.015015,82.369507 619.019104,67.693634 619.023193,53.017769 
	C620.421143,53.011562 621.819092,53.005356 623.636658,53.010017 
z"/>
<path fill="#EF7C80" opacity="1.000000" stroke="none" 
	d="
M351.639191,53.011749 
	C352.003479,73.366486 351.949310,93.710587 351.976318,114.516129 
	C350.893311,114.955956 349.729095,114.934349 348.127869,114.892487 
	C347.221527,114.074440 346.752258,113.276634 346.414948,111.851654 
	C346.704895,109.252350 346.995270,107.280540 347.000000,105.308037 
	C347.041656,87.883224 347.032593,70.458290 347.038513,53.033394 
	C348.432617,53.022633 349.826660,53.011871 351.639191,53.011749 
z"/>
<path fill="#F37478" opacity="1.000000" stroke="none" 
	d="
M384.868591,53.099464 
	C385.281555,73.401817 385.264282,93.679192 385.273346,114.416321 
	C384.151917,114.913284 383.004150,114.950500 381.427246,114.520103 
	C380.997375,93.706024 380.996674,73.359558 380.995972,53.013088 
	C382.143433,53.033554 383.290894,53.054024 384.868591,53.099464 
z"/>
<path fill="#EF7C80" opacity="1.000000" stroke="none" 
	d="
M663.642029,53.012787 
	C663.979919,63.918736 663.886719,74.813576 663.821106,85.708572 
	C663.774292,93.491852 660.747620,96.608047 652.383484,96.943375 
	C653.938660,95.169731 655.901611,93.450882 658.161255,91.043671 
	C658.645386,88.551651 658.985962,86.748779 658.995300,84.944191 
	C659.050354,74.302605 659.028381,63.660610 659.032349,53.018753 
	C660.429138,53.013084 661.825928,53.007412 663.642029,53.012787 
z"/>
<path fill="#F37478" opacity="1.000000" stroke="none" 
	d="
M417.179993,72.362968 
	C422.986206,71.832466 425.108704,73.676811 425.171387,79.727165 
	C425.289612,91.136009 425.231720,102.546661 425.273376,114.416321 
	C424.151917,114.913284 423.004150,114.950500 421.427246,114.520103 
	C420.998718,104.286819 421.059509,94.520515 420.954926,84.755966 
	C420.930725,82.500427 420.340637,80.250954 420.010956,77.998688 
	C419.131317,76.211861 418.251709,74.425034 417.179993,72.362968 
z"/>
<path fill="#F07B7E" opacity="1.000000" stroke="none" 
	d="
M561.612305,83.068588 
	C569.485840,82.814957 577.818054,82.455406 586.148132,82.500259 
	C586.856750,82.504074 588.125977,85.192986 588.157532,86.655609 
	C588.353882,95.747223 588.271301,104.844864 588.300720,114.399673 
	C587.172852,114.896118 586.025391,114.933395 584.445374,114.506653 
	C584.011719,105.964714 584.087646,97.885574 583.959412,89.809677 
	C583.924072,87.583267 583.279968,85.366516 582.915222,83.145332 
	C575.966980,83.119980 569.018677,83.094627 561.612305,83.068588 
z"/>
<path fill="#F37478" opacity="1.000000" stroke="none" 
	d="
M587.881348,31.103382 
	C588.280640,40.083645 588.221130,49.038204 588.234497,57.992649 
	C588.238037,60.374252 588.083557,62.430698 584.419434,61.437290 
	C583.993896,50.953144 583.995789,40.982777 583.997681,31.012407 
	C585.148376,31.034149 586.299133,31.055891 587.881348,31.103382 
z"/>
<path fill="#F0787C" opacity="1.000000" stroke="none" 
	d="
M320.814697,53.086182 
	C316.498901,59.838177 311.771362,66.573586 307.043823,73.308990 
	C306.627319,73.193214 306.210785,73.077446 305.794281,72.961670 
	C305.794281,70.912354 305.794281,68.863037 305.870972,66.401123 
	C308.490265,62.959595 310.803986,59.688801 313.657623,56.988552 
	C315.496033,55.248924 318.127075,54.346977 320.814697,53.086182 
z"/>
<path fill="#EF7C80" opacity="1.000000" stroke="none" 
	d="
M351.532745,28.986801 
	C351.932587,35.005722 351.921692,41.027309 351.993073,47.509285 
	C348.526489,48.364563 346.766907,47.008907 346.988892,43.210636 
	C347.182739,39.893417 347.114502,36.553749 347.012970,33.228550 
	C346.923645,30.302717 348.142273,28.842720 351.532745,28.986801 
z"/>
<path fill="#E06367" opacity="1.000000" stroke="none" 
	d="
M277.846863,29.336018 
	C278.063324,57.343224 278.044220,85.695480 278.028748,114.514496 
	C277.690125,113.560684 277.052673,112.140793 277.049408,110.719444 
	C276.989960,84.837608 276.999084,58.955585 277.032837,33.073658 
	C277.034302,31.942545 277.409943,30.811920 277.846863,29.336018 
z"/>
<path fill="#E46C6F" opacity="1.000000" stroke="none" 
	d="
M380.780518,53.364094 
	C380.996674,73.359558 380.997375,93.706024 380.997040,114.519699 
	C380.668488,113.729958 380.059601,112.473854 380.055786,111.215912 
	C380.000122,92.850365 380.018585,74.484550 380.053772,56.118874 
	C380.055328,55.317291 380.387115,54.516342 380.780518,53.364094 
z"/>
<path fill="#E06367" opacity="1.000000" stroke="none" 
	d="
M346.676941,53.050179 
	C347.032593,70.458290 347.041656,87.883224 347.000000,105.308037 
	C346.995270,107.280540 346.704895,109.252350 346.348450,111.580269 
	C346.149963,111.936058 345.929413,111.608788 345.923035,110.936142 
	C345.876404,91.405968 345.836090,72.548439 345.795807,53.690903 
	C345.795807,53.690903 345.658905,53.409306 345.625641,53.255947 
	C345.833374,53.090714 346.074402,53.078842 346.676941,53.050179 
z"/>
<path fill="#F17377" opacity="1.000000" stroke="none" 
	d="
M93.231293,51.973816 
	C100.672684,50.449692 107.069572,52.623375 111.721634,59.729996 
	C110.570457,60.499023 109.334869,60.941711 107.573486,61.572792 
	C104.737076,55.899586 100.250656,52.304684 93.231293,51.973816 
z"/>
<path fill="#F07B7E" opacity="1.000000" stroke="none" 
	d="
M663.096191,111.052917 
	C663.801636,109.385460 664.815002,107.897232 665.828308,106.409004 
	C666.317627,106.443298 666.806946,106.477600 667.296265,106.511894 
	C669.481628,115.474022 675.975220,116.391335 683.545532,116.155388 
	C676.297546,117.982544 669.308716,116.860382 663.096191,111.052917 
z"/>
<path fill="#E06367" opacity="1.000000" stroke="none" 
	d="
M618.799805,53.364655 
	C619.019104,67.693634 619.015015,82.369507 619.006592,97.511513 
	C618.775085,97.539803 618.348389,97.101257 618.349915,96.664207 
	C618.400024,82.346558 618.491211,68.029060 618.799805,53.364655 
z"/>
<path fill="#E06367" opacity="1.000000" stroke="none" 
	d="
M658.806702,53.364578 
	C659.028381,63.660610 659.050354,74.302605 658.995300,84.944191 
	C658.985962,86.748779 658.645386,88.551651 658.241333,90.716583 
	C658.210266,78.622032 658.395691,66.166222 658.806702,53.364578 
z"/>
<path fill="#E46C6F" opacity="1.000000" stroke="none" 
	d="
M420.008362,78.467384 
	C420.340637,80.250954 420.930725,82.500427 420.954926,84.755966 
	C421.059509,94.520515 420.998718,104.286819 420.997040,114.519699 
	C420.664398,112.736237 420.070648,110.488350 420.046570,108.234383 
	C419.942200,98.469254 420.004242,88.702347 420.008362,78.467384 
z"/>
<path fill="#E46C6F" opacity="1.000000" stroke="none" 
	d="
M582.939026,83.600281 
	C583.279968,85.366516 583.924072,87.583267 583.959412,89.809677 
	C584.087646,97.885574 584.011719,105.964714 584.015503,114.508598 
	C583.678772,111.421249 583.132141,107.873032 583.044495,104.313507 
	C582.878296,97.564171 582.975220,90.808350 582.939026,83.600281 
z"/>
<path fill="#E46C6F" opacity="1.000000" stroke="none" 
	d="
M583.781738,31.363304 
	C583.995789,40.982777 583.993896,50.953144 583.988892,61.381424 
	C583.820679,61.866920 583.655640,61.894501 583.242920,61.880836 
	C583.185486,51.797794 583.375610,41.756001 583.781738,31.363304 
z"/>
<path fill="#EF7C80" opacity="1.000000" stroke="none" 
	d="
M504.672302,53.013016 
	C504.882996,55.040764 504.707458,57.058754 504.474091,59.742012 
	C502.435455,58.091545 500.876343,56.829300 499.103882,55.310085 
	C500.689026,54.369827 502.487579,53.686543 504.672302,53.013016 
z"/>
<path fill="#F07B7E" opacity="1.000000" stroke="none" 
	d="
M636.181641,115.554062 
	C636.315247,115.413620 636.581177,115.495407 636.979980,115.800125 
	C636.848206,115.934959 636.581909,115.852699 636.181641,115.554062 
z"/>
<path fill="#F8676C" opacity="1.000000" stroke="none" 
	d="
M489.985443,96.880272 
	C482.740814,95.512604 479.581970,91.305580 479.654694,83.692238 
	C479.712097,77.678436 483.964172,70.754471 490.679260,71.426529 
	C491.485046,72.378426 491.735931,73.014877 492.152954,73.511925 
	C499.837250,82.670326 499.185242,89.776054 489.985443,96.880272 
z"/>
<path fill="#F0787C" opacity="1.000000" stroke="none" 
	d="
M490.389587,96.932846 
	C499.185242,89.776054 499.837250,82.670326 492.152954,73.511925 
	C491.735931,73.014877 491.485046,72.378426 491.062195,71.483330 
	C499.011719,72.158363 502.229797,76.975502 501.911682,87.541931 
	C501.739166,93.272255 497.761139,96.651169 490.389587,96.932846 
z"/>
<path fill="#F56B70" opacity="1.000000" stroke="none" 
	d="
M745.066772,87.481117 
	C741.887390,96.806450 733.561462,99.821739 726.701172,94.682220 
	C721.364807,90.684349 722.959656,85.118256 723.429749,80.045097 
	C723.815063,75.888008 729.102722,71.498055 733.032349,71.000580 
	C738.712524,70.281494 743.737854,74.237747 744.909790,80.617928 
	C745.293396,82.706749 745.063354,84.908302 745.066772,87.481117 
z"/>
<path fill="#F8676C" opacity="1.000000" stroke="none" 
	d="
M345.510651,53.871010 
	C345.836090,72.548439 345.876404,91.405968 345.878387,110.743942 
	C339.296936,101.669525 332.678894,92.163956 326.314911,82.491219 
	C325.599609,81.403976 325.689423,78.891975 326.477203,77.852974 
	C332.578094,69.806404 338.942627,61.959709 345.510651,53.871010 
z"/>
<path fill="#F8676C" opacity="1.000000" stroke="none" 
	d="
M168.968277,96.811340 
	C162.239868,96.912361 158.147049,92.891380 157.805328,85.844353 
	C157.342514,76.300011 160.614380,71.634529 168.675842,71.424271 
	C172.335892,76.129898 175.092697,80.831253 173.807373,86.290588 
	C172.940384,89.973152 170.631927,93.316338 168.968277,96.811340 
z"/>
<path fill="#F0787C" opacity="1.000000" stroke="none" 
	d="
M169.336365,96.872604 
	C170.631927,93.316338 172.940384,89.973152 173.807373,86.290588 
	C175.092697,80.831253 172.335892,76.129898 169.063995,71.484550 
	C175.093872,71.853981 178.375183,75.644806 178.878708,82.606972 
	C179.432663,90.266220 176.395081,95.009827 169.336365,96.872604 
z"/>
<path fill="#F8676C" opacity="1.000000" stroke="none" 
	d="
M238.995987,96.876114 
	C233.068909,95.013512 230.499954,91.664131 230.134079,85.322083 
	C229.709015,77.953880 232.118698,73.749329 238.893478,71.317566 
	C248.885834,78.908264 248.676178,89.379883 238.995987,96.876114 
z"/>
<path fill="#F0787C" opacity="1.000000" stroke="none" 
	d="
M239.400406,96.932327 
	C248.676178,89.379883 248.885834,78.908264 239.251495,71.318230 
	C246.871841,70.797783 251.000198,74.839134 251.225616,83.072029 
	C251.477798,92.283455 247.821793,96.738373 239.400406,96.932327 
z"/>
</svg>